<svg xmlns="http://www.w3.org/2000/svg" viewBox="0 0 19 19">
  <path fill="#FFF" d="M2 0h15c1.193 0 2 .807 2 2v15c0 1.193-.807 2-2 2H2c-1.193 0-2-.807-2-2V2C0 .807.807 0 2 0z"/>
  <path fill="#F1333C" d="M.5 3l1.25-1.25 8.75 8.75.75-.75-4-4L12.5.5l4 4 1-1 1.25 1.25-1 1 1 1L17.5 8l-1-1-2.75 2.75 4 4L13 18.5l-1.25-1.25 3.5-3.5L12.5 11 5 18.5l-1.25-1.25 1.5-1.5L.5 11l1.25-1.25L6.5 14.5l2.75-2.75L.5 3zm12 0L9.75 5.75 12.5 8.5l2.75-2.75L12.5 3zm-1.25 2.75L12.5 4.5l1.25 1.25L12.5 7l-1.25-1.25zm-9.5 0l6 6L6.5 13l-6-6 1.25-1.25zM12.5 12.5l1.25 1.25L9 18.5l-1.25-1.25 4.75-4.75z"/>
</svg>
