<svg xmlns="http://www.w3.org/2000/svg" viewBox="0 0 80 16">
  <path fill="#222" d="M38 8a5.483 5.483 0 005.5 5.5A5.496 5.496 0 0049 8a5.496 5.496 0 00-5.5-5.5A5.483 5.483 0 0038 8zm5.5-7a6.978 6.978 0 017 7 6.995 6.995 0 01-7 7 6.995 6.995 0 01-7-7 6.978 6.978 0 017-7zm10 .5l5.5 11 5.5-11H66l-6.5 13h-1L52 1.5h1.5zm15.5 9h8L73.73 3h-1.46L69 10.5zm8.5 1.5h-9l-1 2.5H66l5.5-13h3l5.5 13h-1.5l-1-2.5zm-56-10.5H23L26 8l3-6.5h1.5l3.5 13h-1.5l-3-11-3 6.5h-1l-3-6.5-3 11H18l3.5-13z"/>
  <path fill="#F1333C" d="M.5 2.5l1-1 7 7 1-1-3-3 4-4 3 3 1-1 1 1-1 1 1 1-1 1-1-1-2 2 3 3-5 5-1-1 4-4-2-2-7 7-1-1 2-2-4-4 1-1 4 4 2-2-7-7zm10 0l-2 2 2 2 2-2-2-2zm-1 2l1-1 1 1-1 1-1-1zm-8 0l5 5-1 1-5-5 1-1zm9 5l1 1-5 5-1-1 5-5z"/>
</svg>
