<svg xmlns="http://www.w3.org/2000/svg" viewBox="0 0 80 16">
  <path fill="#EBEBEB" d="M37.8 8a5.184 5.184 0 005.2 5.2A5.196 5.196 0 0048.2 8 5.196 5.196 0 0043 2.8 5.184 5.184 0 0037.8 8zM43 1a6.978 6.978 0 017 7 6.995 6.995 0 01-7 7 6.995 6.995 0 01-7-7 6.978 6.978 0 017-7zm10.5.5l5 11 5-11h2l-6 13h-2l-6-13h2zm15.5 9h7L73 3h-1l-3 7.5zm7.5 1.5h-8l-1 2.5h-2l5.5-13h3l5.5 13h-2l-1-2.5zM21 1.5h1.5l3 6 3-6H30l3.5 13h-2L29 4l-3 6h-1l-3-5.5-2.5 10h-2l3.5-13z"/>
  <path fill="#F1333C" d="M.5 2l1-1 7 7 .5-.5-3-3 4-4 3 3 1-1 1 1-1 1 1 1-1 1-1-1-2 2 3 3-5 5-1-1 4-4-2-2-7 7-1-1L4.5 12l-4-4 1-1 4 4 2-2-7-7zm9.5.5l-2 2 2 2 2-2-2-2zm-1 2l1-1 1 1-1 1-1-1zM1.5 4l5 5-1 1-5-5 1-1zM10 9.5l1 1-5 5-1-1 5-5z"/>
</svg>
