<svg xmlns="http://www.w3.org/2000/svg" viewBox="0 0 80 16">
  <path fill="#222" d="M38 8a4.984 4.984 0 005 5 4.996 4.996 0 005-5 4.996 4.996 0 00-5-5 4.984 4.984 0 00-5 5zm5-7a6.978 6.978 0 017 7 6.995 6.995 0 01-7 7 6.995 6.995 0 01-7-7 6.978 6.978 0 017-7zm11 0l5 12 5-12h2l-6 14h-2L52 1h2zm15.667 9h6.666L74 3h-2l-2.333 7zM77 12h-8l-1 3h-2l5-14h4l5 14h-2l-1-3zM21 1h2l3 8 3-8h2l3 14h-2L30 4l-3 7h-2l-3-7-2 11h-2l3-14z"/>
  <path fill="#F1333C" d="M.5 2.5l1-1 7 7 1-1-3-3 4-4 3 3 1-1 1 1-1 1 1 1-1 1-1-1-2 2 3 3-5 5-1-1 4-4-2-2-7 7-1-1 2-2-4-4 1-1 4 4 2-2-7-7zm10 0l-2 2 2 2 2-2-2-2zm-1 2l1-1 1 1-1 1-1-1zm-8 0l5 5-1 1-5-5 1-1zm9 5l1 1-5 5-1-1 5-5z"/>
</svg>
